<svg xmlns="http://www.w3.org/2000/svg" viewBox="0 0 1024 1024" fill="none" role="img" aria-label="Booray app icon master">
  <defs>
    <linearGradient id="bg" x1="160" y1="80" x2="864" y2="944" gradientUnits="userSpaceOnUse">
      <stop stop-color="#141a2e"/>
      <stop offset="0.55" stop-color="#0a0e18"/>
      <stop offset="1" stop-color="#04060c"/>
    </linearGradient>
    <linearGradient id="cream" x1="512" y1="240" x2="512" y2="760" gradientUnits="userSpaceOnUse">
      <stop stop-color="#faf6ee"/>
      <stop offset="1" stop-color="#e5dac8"/>
    </linearGradient>
    <g id="ornate-spade">
      <path fill="#10131c" d="M0 -42c-16 0-28 12-21 28-12 4-19 14-15 26 3 9 11 14 21 15 1 0 2 0 3-.2L0 88l8-10c1 .2 2 .2 3 .2 10-1 18-6 21-15 4-12-3-22-15-26 7-16-5-28-21-28z"/>
      <path fill="none" stroke="#faf6ee" stroke-width="2.8" stroke-linecap="round" d="M0 -30c-10 0-18 7-13 18M0 -30c10 0 18 7 13 18M0 -12v34M-14 18q14 10 28 0"/>
      <circle cx="0" cy="-18" r="5.5" fill="#faf6ee"/>
      <rect x="-3.5" y="52" width="7" height="10" fill="#faf6ee"/>
    </g>
  </defs>
  <rect width="1024" height="1024" fill="url(#bg)"/>
  <circle cx="512" cy="496" r="396" stroke="#5eb3ff" stroke-opacity="0.38" stroke-width="10" fill="none" stroke-dasharray="840 440"/>
  <circle cx="512" cy="496" r="336" stroke="#e84855" stroke-opacity="0.34" stroke-width="8" fill="none" stroke-dasharray="720 380"/>
  <g opacity="0.22">
    <rect x="248" y="300" width="120" height="168" rx="14" fill="#10131c" stroke="#5eb3ff" stroke-width="6" transform="rotate(-24 308 384)"/>
    <rect x="656" y="300" width="120" height="168" rx="14" fill="#10131c" stroke="#e84855" stroke-width="6" transform="rotate(24 716 384)"/>
  </g>
  <rect x="272" y="192" width="480" height="640" rx="36" fill="url(#cream)" stroke="#10131c" stroke-width="18"/>
  <g transform="translate(332 268) scale(2.4)">
    <path fill="#10131c" d="M0 -8c-3 0-5 2.5-4 5.5-2 .8-3.5 3-2.8 5.5.7 2 2.5 3.2 4.5 3.3.3 0 .7 0 1-.1L0 24l2.8-3.5c.3.1.7.1 1 .1 2-.1 3.8-1.3 4.5-3.3.7-2.5-.8-4.7-2.8-5.5 1-3-1-5.5-4-5.5z"/>
  </g>
  <g transform="translate(512 536) scale(4.7)">
    <use href="#ornate-spade"/>
  </g>
</svg>
