<svg xmlns="http://www.w3.org/2000/svg" viewBox="0 0 512 512" fill="none" role="img" aria-label="Booray app icon">
  <defs>
    <linearGradient id="bg" x1="64" y1="48" x2="448" y2="464" gradientUnits="userSpaceOnUse">
      <stop stop-color="#123528"/>
      <stop offset="0.45" stop-color="#0a2218"/>
      <stop offset="1" stop-color="#050d0a"/>
    </linearGradient>
    <radialGradient id="feltGlow" cx="0" cy="0" r="1" gradientUnits="userSpaceOnUse" gradientTransform="translate(256 180) rotate(90) scale(220 260)">
      <stop stop-color="#1c6e4d" stop-opacity="0.35"/>
      <stop offset="1" stop-color="#1c6e4d" stop-opacity="0"/>
    </radialGradient>
    <linearGradient id="gold" x1="256" y1="96" x2="256" y2="416" gradientUnits="userSpaceOnUse">
      <stop stop-color="#fff2c9"/>
      <stop offset="0.35" stop-color="#f4d58d"/>
      <stop offset="1" stop-color="#b87a24"/>
    </linearGradient>
    <filter id="softGlow" x="-20%" y="-20%" width="140%" height="140%">
      <feGaussianBlur stdDeviation="6" result="blur"/>
      <feMerge>
        <feMergeNode in="blur"/>
        <feMergeNode in="SourceGraphic"/>
      </feMerge>
    </filter>
  </defs>
  <rect width="512" height="512" rx="108" fill="url(#bg)"/>
  <rect width="512" height="512" rx="108" fill="url(#feltGlow)"/>
  <circle cx="256" cy="256" r="188" stroke="#f4d58d" stroke-opacity="0.14" stroke-width="3"/>
  <g filter="url(#softGlow)">
    <text x="256" y="228" text-anchor="middle" font-family="Georgia, Times New Roman, serif" font-size="188" font-weight="700" fill="url(#gold)" letter-spacing="-6">A</text>
    <path fill="url(#gold)" transform="translate(256 318) scale(4.2)" d="M0 -14.5c-6.8 0-11.6 6.1-9 11.8-5.1 2.2-8.6 7.4-6.8 13 1.5 4.6 5.8 7.5 10.3 7.7.7 0 1.3-.1 2-.2L0 44l3.5-14.7c.7.1 1.3.2 2 .2 4.5-.2 8.8-3.1 10.3-7.7 1.8-5.6-1.7-10.8-6.8-13 2.6-5.7-2.2-11.8-9-11.8z"/>
  </g>
</svg>
