<svg xmlns="http://www.w3.org/2000/svg" viewBox="0 0 1024 1024" fill="none" role="img" aria-label="Booray brand mark">
  <defs>
    <linearGradient id="bg" x1="128" y1="96" x2="896" y2="928" gradientUnits="userSpaceOnUse">
      <stop stop-color="#143a2b"/>
      <stop offset="0.5" stop-color="#0a2218"/>
      <stop offset="1" stop-color="#040a08"/>
    </linearGradient>
    <radialGradient id="spot" cx="0" cy="0" r="1" gradientUnits="userSpaceOnUse" gradientTransform="translate(512 360) rotate(90) scale(420 480)">
      <stop stop-color="#1c6e4d" stop-opacity="0.42"/>
      <stop offset="1" stop-color="#1c6e4d" stop-opacity="0"/>
    </radialGradient>
    <linearGradient id="gold" x1="512" y1="180" x2="512" y2="780" gradientUnits="userSpaceOnUse">
      <stop stop-color="#fff6d6"/>
      <stop offset="0.3" stop-color="#f4d58d"/>
      <stop offset="1" stop-color="#a66f1f"/>
    </linearGradient>
    <linearGradient id="cardEdge" x1="0" y1="0" x2="0" y2="1">
      <stop stop-color="#fbf7ef" stop-opacity="0.22"/>
      <stop offset="1" stop-color="#fbf7ef" stop-opacity="0.04"/>
    </linearGradient>
    <filter id="glow" x="-15%" y="-15%" width="130%" height="130%">
      <feGaussianBlur stdDeviation="10" result="blur"/>
      <feMerge>
        <feMergeNode in="blur"/>
        <feMergeNode in="SourceGraphic"/>
      </feMerge>
    </filter>
  </defs>
  <rect width="1024" height="1024" rx="48" fill="url(#bg)"/>
  <rect width="1024" height="1024" rx="48" fill="url(#spot)"/>
  <g opacity="0.18" stroke="#f4d58d" stroke-width="3" fill="url(#cardEdge)">
    <rect x="96" y="140" width="120" height="168" rx="14" transform="rotate(-18 156 224)"/>
    <rect x="808" y="140" width="120" height="168" rx="14" transform="rotate(18 868 224)"/>
    <rect x="96" y="716" width="120" height="168" rx="14" transform="rotate(12 156 800)"/>
    <rect x="808" y="716" width="120" height="168" rx="14" transform="rotate(-12 868 800)"/>
  </g>
  <circle cx="512" cy="512" r="300" stroke="#f4d58d" stroke-opacity="0.16" stroke-width="4"/>
  <circle cx="512" cy="512" r="248" stroke="#f4d58d" stroke-opacity="0.08" stroke-width="2"/>
  <g filter="url(#glow)">
    <text x="512" y="430" text-anchor="middle" font-family="Georgia, Times New Roman, serif" font-size="340" font-weight="700" fill="url(#gold)" letter-spacing="-10">A</text>
    <path fill="url(#gold)" transform="translate(512 590) scale(7.5)" d="M0 -14.5c-6.8 0-11.6 6.1-9 11.8-5.1 2.2-8.6 7.4-6.8 13 1.5 4.6 5.8 7.5 10.3 7.7.7 0 1.3-.1 2-.2L0 44l3.5-14.7c.7.1 1.3.2 2 .2 4.5-.2 8.8-3.1 10.3-7.7 1.8-5.6-1.7-10.8-6.8-13 2.6-5.7-2.2-11.8-9-11.8z"/>
  </g>
  <text x="512" y="860" text-anchor="middle" font-family="Georgia, Times New Roman, serif" font-size="72" font-weight="600" fill="#f4d58d" fill-opacity="0.92" letter-spacing="0.28em">BOORAY</text>
</svg>
